<?xml version="1.0" encoding="UTF-8" standalone="no"?><!DOCTYPE svg PUBLIC "-//W3C//DTD SVG 1.1//EN" "http://www.w3.org/Graphics/SVG/1.1/DTD/svg11.dtd"><svg width="100%" height="100%" viewBox="0 0 50 41" version="1.1" xmlns="http://www.w3.org/2000/svg" xmlns:xlink="http://www.w3.org/1999/xlink" xml:space="preserve" xmlns:serif="http://www.serif.com/" style="fill-rule:evenodd;clip-rule:evenodd;stroke-miterlimit:10;"><rect x="13" y="7" width="24" height="34" style="fill-rule:nonzero;"/><path d="M44,7l-5,0l0,34l5,0c3.3,0 6,-2.7 6,-6l0,-22c0,-3.3 -2.7,-6 -6,-6Z" style="fill-rule:nonzero;"/><path d="M6,7l5,0l0,34l-5,0c-3.3,0 -6,-2.7 -6,-6l0,-22c0,-3.3 2.7,-6 6,-6Z" style="fill-rule:nonzero;"/><path d="M19,5l0,-1c0,-1.7 1.3,-3 3,-3l6,0c1.7,0 3,1.3 3,3l0,1" style="fill:none;stroke:#000;stroke-width:2px;"/></svg>